<?xml version="1.0" encoding="utf-8"?>
<!-- Uploaded to: SVG Repo, www.svgrepo.com, Generator: SVG Repo Mixer Tools -->
<svg width="800px" height="800px" viewBox="0 0 1024 1024" class="icon"  version="1.1" xmlns="http://www.w3.org/2000/svg"><path d="M318.001951 628.910829l71.462712-9.108605c22.288234-2.842224 43.250263 11.209054 49.094557 32.902869 1.970576 7.322849 3.731356 12.672624 5.279843 16.059317 3.544039 7.747434 14.211122 17.408 32.001249 28.984195 18.509424 18.13479 18.506927 31.162068-0.004995 39.076839-14.528312 6.213932-31.389346 9.315902-50.580605 9.30841a82.456976 82.456976 0 0 1-28.135024-4.965152c-27.083551-9.852878-43.567454-16.673717-49.44921-20.462517C307.574634 694.871415 294.00039 674.241561 292.314537 668.78439c-5.045073-16.354029 4.120976-33.697093 20.472507-38.742166 1.700839-0.529483 3.446634-0.909112 5.214907-1.131395z" fill="#F58B50" /><path d="M436.775961 671.014712c-1.825717-3.813776-3.79879-9.475746-6.004137-17.125775a37.463415 37.463415 0 0 0-41.382087-26.701425l-71.290381 10.354888a23.494556 23.494556 0 0 0-18.948995 30.562654c0.22478 0.681834 1.213815 2.44761 2.817249 4.697912 2.187863 3.067005 5.204917 6.616039 8.993717 10.46478 9.802927 9.965268 23.519532 20.747239 41.2672 31.751493 5.269854 3.26681 21.656351 9.715512 48.290341 18.884059a74.901854 74.901854 0 0 0 25.652449 4.066029c18.219707-0.309698 34.029268-3.504078 47.473639-9.53319 12.587707-5.644488 12.622673-12.085698-2.232819-26.28683-18.736702-11.808468-30.215493-21.90361-34.636176-31.134595zM315.941463 622.711883l71.290381-10.354888c25.939668-3.766322 50.680507 12.19559 57.938419 37.383493 1.993054 6.920741 3.728859 11.89838 5.117503 14.803044 2.884683 6.024117 12.864937 14.750595 29.720975 25.307785 0.41959 0.262244 0.811707 0.569444 1.171357 0.906615 22.263259 21.064429 22.600429 40.585366-1.406127 51.352351-15.394966 6.908254-33.195083 10.502244-53.3504 10.84441a89.904702 89.904702 0 0 1-30.782439-4.880234c-27.87278-9.593132-44.686361-16.209171-51.309893-20.315161-34.046751-21.106888-55.453346-42.863141-59.424468-54.986303-6.618537-20.19278 4.385717-41.926556 24.578497-48.54759a38.587317 38.587317 0 0 1 6.456195-1.513522z" fill="#524F75" /><path d="M444.870556 686.574517c10.949307-1.620917 12.660137-2.937132 22.145873-3.981112 57.416429-6.311337 88.895688-2.624937 105.124839 3.981112 28.369795 11.536234-4.425678 27.11602-22.313209 28.512156 40.410537 5.497132 68.732878 25.762341 71.979707 39.156761 2.767298 11.428839-63.560429 12.650146-82.509425 0 17.870049 19.900566 34.860956 51.357346 0 49.923746-23.239805-0.956566-59.464429-26.831298-112.217912-85.261736" fill="#F58B50" /><path d="M588.760039 770.7648c10.012722-0.08242 19.126322-0.989034 25.797307-2.65241 3.938654-0.981541 7.125541-2.230322 9.553171-3.918673 3.931161-2.732332 6.148995-6.888273 4.977639-11.716058-3.524059-14.5408-24.173893-29.765932-51.125073-38.589815 1.860683-1.073951 3.56402-2.215337 5.047571-3.401678 12.622673-10.100137 9.865366-23.566985-8.049639-30.852371-20.370107-8.28441-56.007805-10.284956-108.766283-4.485619-4.058537 0.447063-6.863298 0.924098-10.539708 1.730809-7.282888 1.593444-7.420254 1.620917-11.883395 2.280274a7.490185 7.490185 0 1 0 2.192859 14.823024 141.754068 141.754068 0 0 0 10.447297-1.923122l2.44761-0.544468a76.8 76.8 0 0 1 8.973737-1.473561c50.505678-5.552078 83.910556-3.678907 101.485892 3.471609 7.732449 3.146927 7.630049 2.632429 4.328274 5.269854-5.3248 4.260839-16.384 8.206985-24.403669 8.831376-8.951259 0.69682-9.325893 13.684137-0.42958 14.895453 17.92999 2.440117 34.371434 8.087102 47.116488 15.639727 8.47922 5.022595 14.528312 10.507239 17.205697 14.795551-0.636878 0.209795-1.376156 0.41959-2.200351 0.626888-5.372254 1.336195-13.374439 2.132917-22.305717 2.207844-18.392039 0.152351-36.319532-2.714849-44.129405-7.128039a16.80359 16.80359 0 0 1-1.046478-0.641873c-7.330341-4.89522-15.622244 4.680429-9.732995 11.236527 9.315902 10.374868 16.398985 21.768741 18.014907 29.488702 1.32121 6.331317-0.741776 8.411785-12.130654 7.944742-21.371629-0.879141-57.281561-27.762888-106.965541-82.794147a7.490185 7.490185 0 1 0-11.121639 10.040195c52.348878 57.983376 90.599024 86.622907 117.470283 87.72683 20.614868 0.849171 30.857366-9.490732 27.418224-25.977132-1.093932-5.247376-3.606478-11.084176-7.140527-17.093307 8.953756 1.528507 19.12882 2.270283 29.493698 2.182868z" fill="#524F75" /><path d="M417.092683 699.317073m-9.990244 0a9.990244 9.990244 0 1 0 19.980488 0 9.990244 9.990244 0 1 0-19.980488 0Z" fill="#524F75" /><path d="M474.624 700.540878c29.486205-2.235317 45.677893-1.318712 54.017249 2.005542 14.578263 5.806829-2.275278 13.649171-11.466303 14.350985 20.762224 2.7648 35.31801 12.964839 36.986381 19.708254 1.42361 5.751883-32.658107 6.366283-42.396098 0 9.183532 10.01522 17.912507 25.849756 0 25.127961-11.940839-0.479532-38.959454-24.638439-57.66119-42.913093-18.701737-18.279649 9.797932-17.465444 20.519961-18.279649z" fill="#FFC19F" /><path d="M419.415415 659.288663c-5.00761 7.849834-19.228722 14.465873-42.660839 19.853113-3.946146 0.639376-16.114263 0.417093-36.501854-0.666849-27.21842-1.446088-51.247454-18.372059-61.8496-43.569951-1.483551-3.529054-2.537522-6.296351-3.15442-8.296898-0.729288-2.357698-1.563473-5.95918-2.507551-10.801951-4.110985-21.07442 9.585639-41.469502 30.595122-45.550517a38.72718 38.72718 0 0 1 4.797815-0.62439l76.342946-5.087532c18.671766-1.243785 35.590244 11.06919 40.210732 29.261424l5.676956 22.358166a46.71438 46.71438 0 0 1-0.322185 24.346224" fill="#F58B50" /><path d="M338.901541 670.517698c-24.291278-2.14041-45.248312-18.029893-53.944819-40.902557-1.281249-3.366712-2.162888-5.954185-2.634927-7.694985-0.561951-2.070478-1.226302-5.469659-1.963083-10.105132-2.722341-17.12078 8.896312-33.180098 25.939668-35.877463 1.283746-0.202302 2.582478-0.324683 3.88121-0.364644l76.475317-2.422634c15.087766-0.477034 28.389776 9.9328 31.606634 24.748332l4.89522 22.540487a39.261659 39.261659 0 0 1-0.981541 20.435044 7.492683 7.492683 0 1 0 14.26357 4.593015 54.214556 54.214556 0 0 0 1.361171-28.209951l-4.89522-22.540488c-4.747863-21.873639-24.403668-37.25362-46.72437-36.54681l-76.47282 2.422634a45.780293 45.780293 0 0 0-5.751883 0.544469c-25.235356 3.996098-42.418576 27.74041-38.397502 53.033209 0.814205 5.115005 1.568468 8.971239 2.297756 11.66361 0.62439 2.305249 1.650888 5.317307 3.09198 9.106107 10.734517 28.234927 36.621737 47.855766 66.634927 50.503181 21.059434 1.858185 33.304976 2.512546 38.052839 1.913132 25.91719-4.99762 41.809171-11.731044 48.560078-21.538966a7.492683 7.492683 0 0 0-12.342946-8.496703c-3.7888 5.504624-16.686205 10.984273-38.300098 15.192664-3.474107 0.349659-15.434927-0.299707-34.651161-1.995551z" fill="#524F75" /><path d="M374.796488 617.472l21.711297-5.819317a19.980488 19.980488 0 1 1 10.3424 38.599805l-21.711297 5.819317a19.980488 19.980488 0 1 1-10.3424-38.599805z" fill="#FFC19F" /><path d="M376.762068 609.87442l-38.375024 1.563473a172.401639 172.401639 0 0 1-12.889912-1.73081c-5.337288-0.951571-11.221541-2.824741-17.647766-5.614517-30.640078-13.316995-47.91321-45.862712-41.511961-78.21362 0.464546-2.34521 0.90162-4.240859 1.313717-5.686946 0.949073-3.344234 3.057015-8.863844 6.321327-16.558829 8.132059-19.173776 30.322888-28.304859 49.943727-20.55243l73.293424 28.961718c18.30962 7.232937 28.324839 26.843785 23.294751 45.610458l-3.012058 11.241522c-4.428176 16.526361-15.747122 29.755941-30.405308 37.053815" fill="#F58B50" /><path d="M373.527727 619.162849l-38.404995-0.449561a7.365307 7.365307 0 0 1-1.048976-0.084917 180.159063 180.159063 0 0 1-13.341971-2.512547c-5.891746-1.371161-12.208078-3.751337-18.97397-7.123044-33.040234-16.468917-50.238439-53.420332-41.282186-88.82076a80.571317 80.571317 0 0 1 1.783259-6.196449c1.24878-3.661424 3.743844-9.290927 7.535141-17.065834 10.916839-22.395629 37.932956-31.893854 60.800625-21.441561l71.677502 32.758009c21.351649 9.757971 32.073678 33.779512 24.888195 55.897913l-3.596488 11.06919c-5.859278 18.034888-19.176273 32.473288-36.444409 39.968468-2.247805 0.979044-4.712898 0.764254-6.690966-0.362146a7.497678 7.497678 0 0 1-6.900761 4.363239z m7.622556-17.750166c13.364449-5.801834 23.639415-16.940956 28.16-30.854868l3.59399-11.066693c4.82279-14.840507-2.405151-31.029698-16.863532-37.638244l-71.68-32.75801c-15.509854-7.088078-33.767024-0.671844-41.102361 14.378459-3.536546 7.252917-5.82681 12.427863-6.823336 15.345014a67.758829 67.758829 0 0 0-1.436098 5.030088c-7.220449 28.539629 6.67598 58.395473 33.439844 71.732449 5.776859 2.879688 11.014244 4.852761 15.684683 5.941698 3.406673 0.789229 7.310361 1.531005 11.703571 2.215336l37.875512 0.442068a7.460215 7.460215 0 0 1 3.621464 0.981542 7.46521 7.46521 0 0 1 3.826263-3.748839zM507.16722 387.119454c188.915512-4.088507 288.158595-38.247649 296.168273-106.048937 5.287337-44.76878-13.262049-79.497366-48.897249-104.660293-24.341229-17.188215-54.08718-28.239922-81.682732-33.896897a7.492683 7.492683 0 1 0-3.009561 14.680663c25.747356 5.277346 53.662595 15.649717 76.048234 31.456781 31.4368 22.198322 47.248859 51.801912 42.658342 90.661463-6.705951 56.764566-100.057288 88.898185-281.60999 92.826849a7.49518 7.49518 0 0 0 0.324683 14.980371z" fill="#524F75" /><path d="M428.466576 406.972566c177.119532-33.28999 272.621268-65.416117 290.191609-99.800039 12.839961-25.127961 3.396683-49.104546-22.133385-69.499629-19.24121-15.36999-47.446166-28.424741-75.408859-36.43442-52.880859-15.14521-137.985249-3.489093-184.142673 29.223961a7.492683 7.492683 0 1 0 8.664039 12.225561c42.2912-29.970732 122.682693-40.982478 171.350166-27.04359 26.211902 7.507668 52.691044 19.7632 70.183961 33.737053 20.559922 16.423961 27.190946 33.262517 18.142283 50.972722-14.311024 28.007649-108.741307 59.776624-279.614439 91.890264a7.492683 7.492683 0 0 0 2.767298 14.728117z" fill="#524F75" /><path d="M362.900605 557.493073l22.393132-1.95559a19.980488 19.980488 0 0 1 3.484097 39.806127l-22.393132 1.958088a19.980488 19.980488 0 0 1-3.484097-39.808625z" fill="#FFC19F" /><path d="M355.517815 553.879102c-4.850263-1.785756-20.185288-12.053229-20.185288-12.053229s-12.085698-8.676527-18.526907-15.310049c-0.559454-0.576937-3.436644-4.348254-8.634069-11.318946-17.065834-22.887649-18.871571-53.520234-4.585522-77.789034 2.914654-4.952663 5.227395-8.569132 6.935727-10.846907 2.622439-3.496585 7.927259-9.315902 15.914459-17.457952 14.490849-14.768078 38.315083-15.230127 53.794965-1.046478l70.436215 64.536976c14.543298 13.324488 16.900995 35.243083 5.477151 50.965229l-9.528195 13.114693c-11.396371 15.684683-28.884293 24.978107-47.446166 26.441678l-30.542673-4.652956" fill="#F58B50" /><path d="M350.365346 560.10802c-2.445112-0.996527-6.036605-3.169405-10.929326-6.42123a345.827278 345.827278 0 0 1-7.155513-4.90521c-0.844176-0.591922-1.623415-1.14638-2.325229-1.643395a126.821151 126.821151 0 0 1-1.088937-0.786731 218.281834 218.281834 0 0 1-4.418185-3.531552 208.756137 208.756137 0 0 1-7.892293-6.773385c-2.607454-2.362693-4.847766-4.553054-6.648507-6.541112-0.889132-0.986537-3.401678-4.528078-8.838868-12.375415-17.964956-25.942166-18.779161-59.881522-2.030517-86.193327 3.224351-5.065054 5.799337-8.79641 7.797385-11.278985 3.012059-3.736351 8.689015-9.545678 17.185717-17.620293 17.93998-17.050849 46.372215-16.611278 64.209795 0.916605l68.140956 66.957112c16.771122 16.481405 18.671766 42.748254 4.348254 61.080352l-9.980254 12.775024c-13.089717 16.751141-32.790478 26.71641-53.914848 27.640507-0.574439 0.027473-1.148878-0.014985-1.715825-0.12238l-30.362849-5.719415a7.492683 7.492683 0 0 1-6.106536-7.247922 7.490185 7.490185 0 0 1-8.27442 1.790752z m17.158244-9.265952l29.483708 5.554576c16.46642-0.959063 31.73401-8.808898 41.926556-21.856156l9.980253-12.772527c9.603122-12.295493 8.324371-29.998205-3.044527-41.167298l-68.138458-66.959609c-12.110673-11.900878-31.331902-12.198088-43.385132-0.744274-8.037151 7.640039-13.366946 13.089717-15.842029 16.161718-1.575961 1.95559-3.873717 5.287337-6.823337 9.920312-13.494322 21.201795-12.837463 48.610029 1.708332 69.614517 4.463141 6.446205 7.437737 10.63961 7.627551 10.849405 1.42361 1.570966 3.331746 3.439141 5.604527 5.497131 2.257795 2.048 4.757854 4.180917 7.322849 6.283864 1.6384 1.34119 3.019551 2.440117 3.988605 3.189385l0.72679 0.52199 2.235317 1.580957c2.317737 1.62841 4.650459 3.234341 6.843317 4.692917 3.9936 2.65241 7.125541 4.545561 8.289405 5.022595a7.497678 7.497678 0 0 1 4.662946 6.825834 7.482693 7.482693 0 0 1 6.833327-2.215337z" fill="#524F75" /><path d="M389.594537 508.843083l21.12437 7.687493a19.980488 19.980488 0 0 1-13.666653 37.550829l-21.124371-7.687493a19.980488 19.980488 0 1 1 13.666654-37.550829z" fill="#FFC19F" /><path d="M689.326829 372.266459c-76.70759-6.453698-132.360741-14.081249-166.961951-22.882654-51.901815-13.202107-165.463415 0-184.984351 55.960351-10.419824 29.873327 10.604644 60.433483 39.471453 82.766673 16.196683 12.530263 34.860956 22.470556 51.826888 28.247415 9.44078 3.211863 18.352078 5.13998 26.019591 5.499629 46.012566 2.185366 16.808585-23.554498 94.894829-40.045893 52.059161-10.994263 98.636176-47.508605 139.733541-109.545521z" fill="#F58B50" /><path d="M548.067278 474.481639c-18.5344 3.913678-32.455805 8.59161-43.087922 14.143688-6.049093 3.159415-10.914341 6.518634-15.327532 10.379863a97.215063 97.215063 0 0 0-4.972644 4.70041l-1.04398 1.053971-0.981541 0.996527c-0.749268 0.756761-1.286244 1.293737-1.803239 1.790751-6.019122 5.821815-11.034224 7.530146-25.77483 6.828331-6.815844-0.322185-15.027824-2.070478-23.959102-5.110009-16.59879-5.65198-34.476332-15.335024-49.656508-27.081054-30.622595-23.691863-45.160898-50.925268-36.983882-74.372371 7.919766-22.700332 35.387941-39.91602 74.96679-49.084566 34.875941-8.07961 75.291473-8.644059 101.096273-2.082965 33.120156 8.424273 84.864624 15.734634 155.378263 21.981034-38.262634 54.119649-80.883512 85.936078-127.850146 95.85639z m141.908917-109.682888c-76.327961-6.421229-131.633951-14.001327-165.740644-22.677853-28.257405-7.185483-71.07559-6.586068-108.174361 2.008039-44.071961 10.210029-75.721054 30.043161-85.733775 58.745131-10.799454 30.962263 6.823337 63.977522 41.961522 91.160976 16.47641 12.747551 35.817522 23.22482 53.997268 29.413776 10.177561 3.466615 19.738224 5.497132 28.080078 5.891746 18.706732 0.886634 27.775376-2.197854 36.901463-11.024234 0.6144-0.591922 1.223805-1.198829 2.043005-2.030517l0.991532-1.00402 0.991532-1.001522a81.755161 81.755161 0 0 1 4.220878-3.998595c3.536546-3.094478 7.420254-5.776859 12.395395-8.374322 9.3184-4.865249 21.968546-9.116098 39.251668-12.765034 54.184585-11.443824 102.327571-49.184468 144.428956-112.739902 3.146927-4.745366 0.057444-11.126634-5.614517-11.603669z" fill="#524F75" /><path d="M398.360976 400.858537m-8.741464 0a8.741463 8.741463 0 1 0 17.482927 0 8.741463 8.741463 0 1 0-17.482927 0Z" fill="#EA7737" /><path d="M387.121951 424.585366m-4.995122 0a4.995122 4.995122 0 1 0 9.990244 0 4.995122 4.995122 0 1 0-9.990244 0Z" fill="#EA7737" /><path d="M423.336585 410.84878m-6.243902 0a6.243902 6.243902 0 1 0 12.487805 0 6.243902 6.243902 0 1 0-12.487805 0Z" fill="#EA7737" /><path d="M367.141463 397.112195m-4.995122 0a4.995122 4.995122 0 1 0 9.990244 0 4.995122 4.995122 0 1 0-9.990244 0Z" fill="#EA7737" /><path d="M414.595122 429.580488m-4.995122 0a4.995122 4.995122 0 1 0 9.990244 0 4.995122 4.995122 0 1 0-9.990244 0Z" fill="#EA7737" /><path d="M415.843902 388.370732m-3.746341 0a3.746341 3.746341 0 1 0 7.492683 0 3.746341 3.746341 0 1 0-7.492683 0Z" fill="#EA7737" /><path d="M578.185366 411.820332c0 6.383766-5.052566 11.516254-11.239025 11.516253s-11.239024-5.134985-11.239024-11.516253V409.6a6.243902 6.243902 0 1 0-12.487805 0v2.220332c0 13.237073 10.599649 24.004059 23.726829 24.004058s23.726829-10.769483 23.72683-24.004058a6.243902 6.243902 0 0 0-12.487805 0z" fill="#524F75" /><path d="M541.970732 377.131707c16.551337 0 29.970732-14.753093 29.970731-32.952819S558.522068 309.697561 541.970732 309.697561s-29.970732 16.284098-29.970732 34.481327S525.419395 377.131707 541.970732 377.131707z" fill="#FFFFFF" /><path d="M541.970732 384.62439c-20.859629 0-37.463415-18.259668-37.463415-40.445502C504.507317 321.788254 521.245971 302.204878 541.970732 302.204878s37.463415 19.583376 37.463414 41.97401C579.434146 366.364722 562.830361 384.62439 541.970732 384.62439z m0-14.985366c12.248039 0 22.478049-11.249015 22.478048-25.460136C564.44878 329.588137 553.851629 317.190244 541.970732 317.190244s-22.478049 12.397893-22.478049 26.988644c0 14.211122 10.23001 25.460137 22.478049 25.460136z" fill="#524F75" /><path d="M524.785015 351.988761c1.568468 2.077971 3.8912 3.38919 6.48117 3.38919 4.73038 0 8.564137-4.380722 8.564137-9.787941s-3.833756-9.787941-8.564137-9.787942c-4.670439 0-8.471727 4.275824-8.564136 9.590634l6.351297 1.053971-4.268331 5.542088z" fill="#232323" /><path d="M467.043902 382.126829c24.828254 0 44.956098-19.935532 44.956098-44.529014C512 313.006829 489.526946 292.214634 464.698693 292.214634S422.087805 313.006829 422.087805 337.597815C422.087805 362.191298 442.215649 382.126829 467.043902 382.126829z" fill="#FFFFFF" /><path d="M467.043902 389.619512c-28.951727 0-52.44878-23.274771-52.44878-52.021697C414.595122 308.358868 436.169054 284.721951 464.698693 284.721951 493.85522 284.721951 519.492683 309.038205 519.492683 337.597815 519.492683 366.344741 495.995629 389.619512 467.043902 389.619512z m0-14.985366c20.707278 0 37.463415-16.59879 37.463415-37.036331C504.507317 317.497444 485.750634 299.707317 464.698693 299.707317 444.765659 299.707317 429.580488 316.346068 429.580488 337.597815 429.580488 358.035356 446.336624 374.634146 467.043902 374.634146z" fill="#524F75" /><path d="M442.527844 350.849873a14.985366 14.985366 0 1 0-3.296781-8.696507l9.972761 1.396136-6.67598 7.300371z" fill="#232323" /><path d="M399.577288 540.264898c7.942244-4.445659 13.381932-7.232937 16.316566-8.359337 2.932137-1.1264 8.841366-2.692371 17.717697-4.705405a11.194068 11.194068 0 0 1 12.932371 6.898264 11.196566 11.196566 0 0 1-4.995122 13.779043c-7.984702 4.465639-13.419395 7.257912-16.314068 8.36683-2.894673 1.111415-8.798907 2.674888-17.722693 4.695414a11.199063 11.199063 0 0 1-12.932371-6.893268 11.199063 11.199063 0 0 1 4.99762-13.781541z" fill="#FFA370" /><path d="M403.238712 546.80601a3.703883 3.703883 0 0 0-1.663375 4.555551 3.703883 3.703883 0 0 0 4.280819 2.27278c8.574127-1.940605 14.246088-3.441639 16.693698-4.380721 2.44761-0.939083 7.667512-3.616468 15.335024-7.912274a3.703883 3.703883 0 0 0 1.663376-4.553053 3.708878 3.708878 0 0 0-4.285815-2.277776c-8.531668 1.933112-14.198634 3.436644-16.683707 4.395707-2.490068 0.954068-7.704976 3.626459-15.34002 7.899786z m-7.320351-13.07723c8.254439-4.620488 13.911415-7.517659 17.288117-8.81639 3.376702-1.298732 9.5232-2.929639 18.746693-5.020097a18.696741 18.696741 0 0 1 21.586419 11.521248 18.686751 18.686751 0 0 1-8.331863 23.002537c-8.291902 4.642966-13.94638 7.542634-17.288117 8.826381-3.341737 1.278751-9.483239 2.909659-18.751688 5.005112-9.061151 2.055493-18.257171-2.84722-21.583922-11.513756s0.22478-18.466966 8.334361-23.005035z" fill="#524F75" /><path d="M478.909815 522.562185c2.055493 0.39961 9.078634 2.427629 21.066926 6.086556 5.259863 1.838205 27.408234 10.951805 26.349269 16.408976-1.058966 5.454673-22.997541 4.445659-28.562108 4.17842-9.136078-0.437073-20.784702-0.49202-23.826731-1.083942-3.042029-0.589424-8.883824-2.392663-17.517893-5.407219a11.196566 11.196566 0 0 1-7.312858-12.700098 11.199063 11.199063 0 0 1 11.541229-9.041171c9.091122 0.439571 15.180176 0.956566 18.262166 1.558478z" fill="#FFA370" /><path d="M477.221463 530.279649c-2.634927-0.417093-8.486712-0.711805-17.235668-0.826693-1.848195-0.024976-3.431649 1.303727-3.718868 3.111961s0.804215 3.561522 2.572488 4.113483c8.394302 2.604956 14.056273 4.140956 16.646244 4.550556 1.123902 0.179824 3.171902 0.189815 14.505834 0.139864l1.790751-0.004996c2.515044-0.007493 4.585522 0 6.481171 0.024976 5.10002 0.067434 9.358361 0.007493 13.476839-0.319688-4.695415-2.23282-10.689561-4.548059-14.168664-5.64199-11.633639-3.111961-18.676761-4.885229-20.350127-5.147473z m2.342713-14.800547c2.4576 0.387122 9.535688 2.167883 22.028487 5.50962l0.282225 0.079922c4.250849 1.318712 11.298966 4.048546 16.811083 6.705951 3.796293 1.830712 6.938224 3.636449 9.335883 5.474654 4.228371 3.226849 6.718439 6.713444 5.944195 11.628644-0.776741 4.897717-4.235863 7.480195-9.076137 9.078634-2.729834 0.899122-6.074068 1.491044-10.030205 1.878166-5.354771 0.524488-10.484761 0.619395-16.7936 0.534478-1.803239-0.01998-3.801288-0.029971-6.243902-0.019981-0.551961 0-1.128898 0-1.763278 0.004995-13.961366 0.062439-14.493346 0.059941-16.918478-0.322185-3.534049-0.559454-9.668059-2.222829-18.744195-5.040078a18.689249 18.689249 0 0 1-12.932371-20.76722 18.689249 18.689249 0 0 1 18.719219-15.754614c9.460761 0.124878 15.809561 0.444566 19.381074 1.009014z" fill="#524F75" /><path d="M400.708683 565.592663c6.883278-1.668371 11.536234-2.564995 13.961366-2.689873 2.422634-0.129873 7.143024 0.277229 14.161171 1.216312 4.295805 0.574439 7.697483 5.12 7.992195 10.672078 0.28722 5.54958-2.622439 10.42482-6.828332 11.443825-6.918244 1.673366-11.568702 2.577483-13.958868 2.702361-2.392663 0.124878-7.113054-0.282224-14.163669-1.226303-4.295805-0.574439-7.69998-5.12-7.989697-10.66958s2.614946-10.429815 6.825834-11.44882z" fill="#FFA370" /><path d="M402.374556 573.32761c-0.354654 0.099902-1.173854 1.588449-0.979044 3.80878 0.19481 2.222829 1.258771 3.544039 1.623415 3.581503 6.623532 0.649366 11.044215 0.879141 12.812488 0.724292 1.770771-0.152351 6.084059-1.143883 12.4928-2.937131 0.349659-0.099902 1.171356-1.590946 0.979044-3.811278-0.19481-2.220332-1.258771-3.546537-1.623415-3.581503-6.588566-0.649366-11.006751-0.874146-12.80999-0.7168-1.808234 0.159844-6.116527 1.148878-12.495298 2.932137z m-4.033561-14.435903c7.26041-2.02802 12.190595-3.159415 15.220137-3.424156 3.029541-0.264741 8.077112-0.007493 15.58478 0.729288 8.259434 0.811707 14.311024 8.334361 15.085268 17.190712 0.774244 8.851356-3.876215 17.308098-11.868409 19.543415-7.297873 2.040507-12.220566 3.1744-15.222634 3.434146s-8.044644 0.004995-15.584781-0.73678c-8.259434-0.816702-14.311024-8.334361-15.085268-17.188215-0.776741-8.853854 3.876215-17.313093 11.870907-19.54841z" fill="#524F75" /><path d="M474.23438 573.764683c1.830712 1.016507 7.882302 5.117502 18.152274 12.300488 4.435668 3.371707 11.583688 14.04878 8.891317 18.911531-2.692371 4.860254-12.145639 1.958088-17.353054-0.014985-8.551649-3.246829-19.618341-6.890771-22.328195-8.391805-2.709854-1.506029-7.707473-5.025093-14.990361-10.562185a11.199063 11.199063 0 0 1-3.029541-14.338498 11.199063 11.199063 0 0 1 13.769053-5.02759c8.511688 3.229346 14.14119 5.602029 16.888507 7.125541z" fill="#FFA370" /><path d="M470.600429 580.318283c-2.332722-1.288741-7.729951-3.569015-15.909463-6.668488a3.701385 3.701385 0 0 0-4.560546 1.653385 3.70638 3.70638 0 0 0 1.011512 4.742869c6.998166 5.319805 11.790985 8.699005 14.086244 9.970263 0.991532 0.551961 2.912156 1.263766 13.581736 5.092527l1.688351 0.60441c2.362693 0.854166 4.308293 1.568468 6.081561 2.240312 2.65241 1.009015 5.080039 1.723317 7.058108 2.033015a22.9376 22.9376 0 0 0-0.7168-1.453581c-1.4336-2.64242-3.584-5.329795-4.975142-6.428722-9.857873-6.893268-15.86201-10.964293-17.345561-11.78599z m7.267903-13.104703c2.172878 1.203824 8.214478 5.297327 18.811629 12.712586l0.242263 0.174829c8.206985 6.241405 15.644722 19.960507 10.909347 28.509659-3.05202 5.50962-8.609093 7.078088-15.097756 6.373775-3.621463-0.394615-7.39278-1.473561-11.463805-3.014556-1.688351-0.639376-3.561522-1.326205-5.856781-2.155395l-1.660878-0.599415c-13.142166-4.712898-13.641678-4.900215-15.787083-6.086556-3.129444-1.735805-8.324371-5.394732-15.89198-11.146614a18.691746 18.691746 0 0 1-5.045073-23.936625 18.691746 18.691746 0 0 1 22.975063-8.404292c8.841366 3.346732 14.700644 5.819317 17.865054 7.572604z" fill="#524F75" /><path d="M403.456 597.61639c5.676956 0.207298 9.455766 0.549463 11.338927 1.019005 1.878166 0.467044 5.374751 1.940605 10.484761 4.420683 3.131941 1.51602 4.558049 6.22642 3.351727 11.051707-1.201327 4.83278-4.670439 8.316878-8.144547 8.192-5.704429-0.217288-9.485737-0.551961-11.338927-1.016507-1.858185-0.459551-5.352273-1.93561-10.489756-4.428176-3.126946-1.518517-4.555551-6.223922-3.349229-11.054204 1.203824-4.830283 4.672937-8.316878 8.147044-8.187005z" fill="#FFA370" /><path d="M403.178771 605.10158h0z m-0.599415 2.515044c-0.269737 1.076449-0.257249 2.092956-0.049951 2.779786 4.345756 2.097951 7.300371 3.336741 8.431766 3.621463 1.133893 0.279727 4.32078 0.574439 9.136078 0.766751 0.514498-0.514498 0.999024-1.408624 1.271258-2.485073 0.269737-1.078946 0.257249-2.095454 0.047454-2.78478-4.325776-2.090459-7.272898-3.321756-8.431766-3.608976-1.161366-0.289717-4.345756-0.584429-9.13358-0.776741-0.516995 0.514498-1.00402 1.406127-1.271259 2.48757z m1.156371-17.490419c6.193951 0.229776 10.32242 0.60441 12.872429 1.236293 2.547512 0.636878 6.36878 2.245307 11.943337 4.947668 6.788371 3.294283 9.330888 11.681093 7.352819 19.608351-1.973073 7.932254-8.157034 14.14119-15.694673 13.863961-6.218927-0.232273-10.347395-0.599415-12.872429-1.2288-2.527532-0.631883-6.346302-2.245307-11.948332-4.960156-6.785873-3.289288-9.325893-11.676098-7.350322-19.605854 1.975571-7.927259 8.159532-14.14119 15.697171-13.861463z" fill="#524F75" /><path d="M464.26162 620.409132c1.51602 1.098927 6.446205 5.40722 14.790556 12.91239 3.57401 3.479102 10.717034 12.163122 7.79239 16.184195-2.927141 4.031063-12.962341 2.003044-17.373034-0.319688-7.247922-3.813776-16.683707-8.264429-18.931512-9.895336-2.24281-1.630907-6.301346-5.302322-12.168118-11.019239a10.030205 10.030205 0 0 1-1.128897-13.074732 10.027707 10.027707 0 0 1 12.787512-2.964605c7.210459 3.796293 11.955824 6.518634 14.231103 8.177015z" fill="#FFA370" /><path d="M460.085698 626.408273c-1.840702-1.438595-6.278868-4.195902-13.044761-8.062127a2.527532 2.527532 0 0 0-3.25682 0.626888c-0.771746 0.986537-0.699317 2.397659 0.174829 3.311766 5.419707 5.659473 9.168546 9.300917 10.981776 10.714537 0.746771 0.581932 2.410146 1.523512 11.189073 6.333814l1.408625 0.774244c1.973073 1.086439 3.596488 1.993054 5.077541 2.837229 1.213815 0.694322 3.341737 1.421112 5.359766 1.780761a36.414439 36.414439 0 0 0-4.263337-5.514614c-7.722459-7.450224-12.465327-11.88839-13.626692-12.802498z m9.223492-11.805971c1.788254 1.398634 6.556098 5.864273 14.92043 13.936391l0.212292 0.207297c2.564995 2.677385 5.31481 6.261385 7.192976 9.655571 3.354224 6.05159 4.375727 11.651122 0.519492 16.586302-5.75438 7.367805-18.464468 5.829307-26.976156 0.966557-1.398634-0.79922-2.957112-1.670868-4.870244-2.722342l-1.383648-0.759258c-11.076683-6.079063-11.426341-6.276371-13.212098-7.667513-2.562498-2.003044-6.663493-5.986654-12.575219-12.160624-6.024117-6.288859-6.523629-16.039337-1.163864-22.900137s14.942907-8.728976 22.503025-4.410692c7.385288 4.220878 12.243044 7.242927 14.835512 9.265951z" fill="#524F75" /></svg>